# Blender v2.79 (sub 0) OBJ File: 'Black Expanse.blend'
# www.blender.org
mtllib Black Expanse 1.002.mtl
o Cube
v -605.541687 0.000000 469.463776
v 394.458282 0.000000 469.463776
v -605.541687 0.000000 -530.536255
v 394.458282 0.000000 -530.536255
v -605.541687 -2.000000 469.463776
v 394.458282 -2.000000 469.463776
v 394.458282 -2.000000 -530.536255
v -605.541687 -2.000000 -530.536255
v -3.313710 0.000000 8.000000
v 3.313707 0.000000 8.000000
v 8.000000 0.000000 3.313708
v 8.000000 0.000000 -3.313709
v 3.313708 0.000000 -8.000000
v -3.313709 0.000000 -7.999999
v -8.000000 0.000000 -3.313707
v -7.999999 0.000000 3.313709
v -3.313710 0.500000 8.000000
v 3.313707 0.500000 8.000000
v 8.000000 0.500000 3.313708
v 8.000000 0.500000 -3.313709
v 3.313708 0.500000 -8.000000
v -3.313709 0.500000 -7.999999
v -8.000000 0.500000 -3.313707
v -7.999999 0.500000 3.313709
v 7.199999 0.500000 -2.982338
v 2.982337 0.500000 -7.200000
v 7.199999 0.500000 2.982337
v -2.982339 0.500000 7.200000
v 2.982337 0.500000 7.200000
v -2.982338 0.500000 -7.199999
v -7.199999 0.500000 -2.982337
v -7.199998 0.500000 2.982338
v 7.199999 1.000000 -2.982338
v 2.982337 1.000000 -7.200000
v 7.199999 1.000000 2.982337
v -2.982339 1.000000 7.200000
v 2.982337 1.000000 7.200000
v -2.982338 1.000000 -7.199999
v -7.199999 1.000000 -2.982337
v -7.199998 1.000000 2.982338
v 6.479999 1.000000 -2.684104
v 2.684103 1.000000 -6.480000
v 6.479999 1.000000 2.684104
v -2.684105 1.000000 6.480000
v 2.684103 1.000000 6.480000
v -2.684104 1.000000 -6.479999
v -6.479999 1.000000 -2.684103
v -6.479999 1.000000 2.684104
v 6.479999 1.500000 -2.684104
v 2.684103 1.500000 -6.480000
v 6.479999 1.500000 2.684104
v -2.684105 1.500000 6.480000
v 2.684103 1.500000 6.480000
v -2.684104 1.500000 -6.479999
v -6.479999 1.500000 -2.684103
v -6.479999 1.500000 2.684104
vn 0.0000 -1.0000 0.0000
vn 0.0000 0.0000 -1.0000
vn 0.0000 0.0000 1.0000
vn -1.0000 0.0000 0.0000
vn 1.0000 0.0000 0.0000
vn 0.0000 1.0000 0.0000
vn 0.7071 0.0000 -0.7071
vn 0.7071 0.0000 0.7071
vn -0.7071 0.0000 0.7071
vn -0.7071 0.0000 -0.7071
usemtl World
s off
f 8//1 7//1 6//1 5//1
f 3//2 4//2 7//2 8//2
f 2//3 1//3 5//3 6//3
f 1//4 3//4 8//4 5//4
f 4//5 2//5 6//5 7//5
f 4//6 3//6 1//6 2//6
usemtl Stair
f 24//6 17//6 28//6 32//6
f 12//7 13//7 21//7 20//7
f 10//8 11//8 19//8 18//8
f 16//9 9//9 17//9 24//9
f 14//10 15//10 23//10 22//10
f 27//5 25//5 33//5 35//5
f 22//6 23//6 31//6 30//6
f 18//6 19//6 27//6 29//6
f 19//6 20//6 25//6 27//6
f 21//6 22//6 30//6 26//6
f 20//6 21//6 26//6 25//6
f 23//6 24//6 32//6 31//6
f 17//6 18//6 29//6 28//6
f 32//9 28//9 36//9 40//9
f 30//10 31//10 39//10 38//10
f 28//3 29//3 37//3 36//3
f 25//7 26//7 34//7 33//7
f 26//2 30//2 38//2 34//2
f 31//4 32//4 40//4 39//4
f 29//8 27//8 35//8 37//8
f 36//6 37//6 45//6 44//6
f 12//5 20//5 19//5 11//5
f 16//4 24//4 23//4 15//4
f 10//3 18//3 17//3 9//3
f 13//2 14//2 22//2 21//2
f 48//9 44//9 52//9 56//9
f 33//6 34//6 42//6 41//6
f 34//6 38//6 46//6 42//6
f 39//6 40//6 48//6 47//6
f 37//6 35//6 43//6 45//6
f 35//6 33//6 41//6 43//6
f 40//6 36//6 44//6 48//6
f 38//6 39//6 47//6 46//6
f 53//6 51//6 49//6 50//6 54//6 55//6 56//6 52//6
f 46//10 47//10 55//10 54//10
f 44//3 45//3 53//3 52//3
f 41//7 42//7 50//7 49//7
f 42//2 46//2 54//2 50//2
f 47//4 48//4 56//4 55//4
f 45//8 43//8 51//8 53//8
f 43//5 41//5 49//5 51//5
