{
    "asset" : {
        "generator" : "Khronos glTF Blender I/O v1.2.75",
        "version" : "2.0"
    },
    "scene" : 0,
    "scenes" : [
        {
            "name" : "Scene",
            "nodes" : [
                0
            ]
        }
    ],
    "nodes" : [
        {
            "mesh" : 0,
            "name" : "Bow"
        }
    ],
    "materials" : [
        {
            "doubleSided" : true,
            "name" : "Wood",
            "pbrMetallicRoughness" : {}
        },
        {
            "doubleSided" : true,
            "name" : "Metal",
            "pbrMetallicRoughness" : {}
        },
        {
            "doubleSided" : true,
            "name" : "Bowstring",
            "pbrMetallicRoughness" : {}
        }
    ],
    "meshes" : [
        {
            "name" : "Circle",
            "primitives" : [
                {
                    "attributes" : {
                        "POSITION" : 0,
                        "NORMAL" : 1,
                        "TEXCOORD_0" : 2
                    },
                    "indices" : 3,
                    "material" : 0
                },
                {
                    "attributes" : {
                        "POSITION" : 4,
                        "NORMAL" : 5,
                        "TEXCOORD_0" : 6
                    },
                    "indices" : 7,
                    "material" : 1
                },
                {
                    "attributes" : {
                        "POSITION" : 8,
                        "NORMAL" : 9,
                        "TEXCOORD_0" : 10
                    },
                    "indices" : 11,
                    "material" : 2
                }
            ]
        }
    ],
    "accessors" : [
        {
            "bufferView" : 0,
            "componentType" : 5126,
            "count" : 1616,
            "max" : [
                2.2199862003326416,
                0.06301186978816986,
                0.07478868216276169
            ],
            "min" : [
                -2.5095291137695312,
                -0.49541181325912476,
                -0.07303682714700699
            ],
            "type" : "VEC3"
        },
        {
            "bufferView" : 1,
            "componentType" : 5126,
            "count" : 1616,
            "type" : "VEC3"
        },
        {
            "bufferView" : 2,
            "componentType" : 5126,
            "count" : 1616,
            "type" : "VEC2"
        },
        {
            "bufferView" : 3,
            "componentType" : 5123,
            "count" : 2424,
            "type" : "SCALAR"
        },
        {
            "bufferView" : 4,
            "componentType" : 5126,
            "count" : 1702,
            "max" : [
                2.2739126682281494,
                -0.005349710583686829,
                0.27029579877853394
            ],
            "min" : [
                0.1186586320400238,
                -0.48375165462493896,
                -0.031408265233039856
            ],
            "type" : "VEC3"
        },
        {
            "bufferView" : 5,
            "componentType" : 5126,
            "count" : 1702,
            "type" : "VEC3"
        },
        {
            "bufferView" : 6,
            "componentType" : 5126,
            "count" : 1702,
            "type" : "VEC2"
        },
        {
            "bufferView" : 7,
            "componentType" : 5123,
            "count" : 2880,
            "type" : "SCALAR"
        },
        {
            "bufferView" : 8,
            "componentType" : 5126,
            "count" : 706,
            "max" : [
                2.219163656234741,
                -0.369468092918396,
                0.0030988932121545076
            ],
            "min" : [
                -2.4268569946289062,
                -0.47543197870254517,
                -0.0006056218408048153
            ],
            "type" : "VEC3"
        },
        {
            "bufferView" : 9,
            "componentType" : 5126,
            "count" : 706,
            "type" : "VEC3"
        },
        {
            "bufferView" : 10,
            "componentType" : 5126,
            "count" : 706,
            "type" : "VEC2"
        },
        {
            "bufferView" : 11,
            "componentType" : 5123,
            "count" : 1248,
            "type" : "SCALAR"
        }
    ],
    "bufferViews" : [
        {
            "buffer" : 0,
            "byteLength" : 19392,
            "byteOffset" : 0
        },
        {
            "buffer" : 0,
            "byteLength" : 19392,
            "byteOffset" : 19392
        },
        {
            "buffer" : 0,
            "byteLength" : 12928,
            "byteOffset" : 38784
        },
        {
            "buffer" : 0,
            "byteLength" : 4848,
            "byteOffset" : 51712
        },
        {
            "buffer" : 0,
            "byteLength" : 20424,
            "byteOffset" : 56560
        },
        {
            "buffer" : 0,
            "byteLength" : 20424,
            "byteOffset" : 76984
        },
        {
            "buffer" : 0,
            "byteLength" : 13616,
            "byteOffset" : 97408
        },
        {
            "buffer" : 0,
            "byteLength" : 5760,
            "byteOffset" : 111024
        },
        {
            "buffer" : 0,
            "byteLength" : 8472,
            "byteOffset" : 116784
        },
        {
            "buffer" : 0,
            "byteLength" : 8472,
            "byteOffset" : 125256
        },
        {
            "buffer" : 0,
            "byteLength" : 5648,
            "byteOffset" : 133728
        },
        {
            "buffer" : 0,
            "byteLength" : 2496,
            "byteOffset" : 139376
        }
    ],
    "buffers" : [
        {
            "byteLength" : 141872,
            "uri" : "data:application/octet-stream;base64,"
        }
    ]
}
