# Blender v2.79 (sub 0) OBJ File: 'Octagonal Ring.blend'
# www.blender.org
mtllib Octagonal Ring 1.001.mtl
o Cube
v -1.000000 0.000000 2.414214
v 1.000000 0.000000 2.414214
v 2.414214 0.000000 1.000000
v 2.414214 0.000000 -1.000000
v 1.000000 0.000000 -2.414214
v -1.000000 0.000000 -2.414214
v -2.414214 0.000000 -1.000000
v -2.414214 0.000000 1.000000
v 0.750000 0.000000 1.810660
v -0.750000 0.000000 1.810660
v 1.810660 0.000000 0.750000
v 1.810660 0.000000 -0.750000
v 0.750000 0.000000 -1.810660
v -0.750000 0.000000 -1.810660
v -1.810660 0.000000 -0.750000
v -1.810660 0.000000 0.750000
v -1.000000 0.250000 2.414214
v 1.000000 0.250000 2.414214
v 0.750000 0.250000 -1.810660
v 1.000000 0.250000 -2.414214
v 2.414214 0.250000 1.000000
v -1.000000 0.250000 -2.414214
v -0.750000 0.250000 -1.810660
v 2.414214 0.250000 -1.000000
v -2.414214 0.250000 -1.000000
v -1.810660 0.250000 -0.750000
v -1.810660 0.250000 0.750000
v -2.414214 0.250000 1.000000
v 0.750000 0.250000 1.810660
v 1.810660 0.250000 0.750000
v -0.750000 0.250000 1.810660
v 1.810660 0.250000 -0.750000
vn 0.0000 -1.0000 0.0000
vn 0.0000 1.0000 0.0000
vn 0.7071 0.0000 0.7071
vn -1.0000 0.0000 0.0000
vn -0.7071 0.0000 0.7071
vn 0.7071 0.0000 -0.7071
vn 1.0000 0.0000 0.0000
vn 0.0000 0.0000 1.0000
vn 0.0000 0.0000 -1.0000
vn -0.7071 0.0000 -0.7071
usemtl Material
s off
f 7//1 6//1 14//1 15//1
f 8//1 7//1 15//1 16//1
f 5//1 4//1 12//1 13//1
f 4//1 3//1 11//1 12//1
f 8//1 16//1 10//1 1//1
f 3//1 2//1 9//1 11//1
f 2//1 1//1 10//1 9//1
f 6//1 5//1 13//1 14//1
f 25//2 26//2 23//2 22//2
f 28//2 27//2 26//2 25//2
f 20//2 19//2 32//2 24//2
f 24//2 32//2 30//2 21//2
f 28//2 17//2 31//2 27//2
f 21//2 30//2 29//2 18//2
f 18//2 29//2 31//2 17//2
f 22//2 23//2 19//2 20//2
f 14//3 23//3 26//3 15//3
f 8//4 28//4 25//4 7//4
f 8//5 1//5 17//5 28//5
f 5//6 20//6 24//6 4//6
f 15//7 26//7 27//7 16//7
f 2//8 18//8 17//8 1//8
f 10//9 31//9 29//9 9//9
f 9//10 29//10 30//10 11//10
f 6//9 22//9 20//9 5//9
f 13//8 19//8 23//8 14//8
f 3//3 21//3 18//3 2//3
f 12//5 32//5 19//5 13//5
f 7//10 25//10 22//10 6//10
f 11//4 30//4 32//4 12//4
f 10//6 16//6 27//6 31//6
f 4//7 24//7 21//7 3//7
