{
    "asset" : {
        "generator" : "Khronos glTF Blender I/O v1.3.48",
        "version" : "2.0"
    },
    "scene" : 0,
    "scenes" : [
        {
            "name" : "Scene",
            "nodes" : [
                0
            ]
        }
    ],
    "nodes" : [
        {
            "mesh" : 0,
            "name" : "Level Mesh"
        }
    ],
    "materials" : [
        {
            "doubleSided" : true,
            "emissiveFactor" : [
                0,
                0,
                0
            ],
            "name" : "Grass",
            "pbrMetallicRoughness" : {
                "baseColorFactor" : [
                    0.0019989032298326492,
                    0.8000000715255737,
                    0.05944417417049408,
                    1
                ],
                "metallicFactor" : 0,
                "roughnessFactor" : 0.5
            }
        },
        {
            "doubleSided" : true,
            "emissiveFactor" : [
                0,
                0,
                0
            ],
            "name" : "Ground",
            "pbrMetallicRoughness" : {
                "baseColorFactor" : [
                    0.09462440758943558,
                    0.021558508276939392,
                    0.010242156684398651,
                    1
                ],
                "metallicFactor" : 0,
                "roughnessFactor" : 0.5
            }
        },
        {
            "doubleSided" : true,
            "emissiveFactor" : [
                0,
                0,
                0
            ],
            "name" : "Checkered",
            "pbrMetallicRoughness" : {
                "metallicFactor" : 0,
                "roughnessFactor" : 0.5
            }
        },
        {
            "doubleSided" : true,
            "emissiveFactor" : [
                0,
                0,
                0
            ],
            "name" : "Stone",
            "pbrMetallicRoughness" : {
                "baseColorFactor" : [
                    0.800000011920929,
                    0.800000011920929,
                    0.800000011920929,
                    1
                ],
                "metallicFactor" : 0,
                "roughnessFactor" : 0.5
            }
        }
    ],
    "meshes" : [
        {
            "name" : "Circle",
            "primitives" : [
                {
                    "attributes" : {
                        "POSITION" : 0,
                        "NORMAL" : 1,
                        "TEXCOORD_0" : 2
                    },
                    "indices" : 3,
                    "material" : 0
                },
                {
                    "attributes" : {
                        "POSITION" : 4,
                        "NORMAL" : 5,
                        "TEXCOORD_0" : 6
                    },
                    "indices" : 7,
                    "material" : 1
                },
                {
                    "attributes" : {
                        "POSITION" : 8,
                        "NORMAL" : 9,
                        "TEXCOORD_0" : 10
                    },
                    "indices" : 11,
                    "material" : 2
                },
                {
                    "attributes" : {
                        "POSITION" : 12,
                        "NORMAL" : 13,
                        "TEXCOORD_0" : 14
                    },
                    "indices" : 15,
                    "material" : 3
                }
            ]
        }
    ],
    "accessors" : [
        {
            "bufferView" : 0,
            "componentType" : 5126,
            "count" : 495,
            "max" : [
                207.13101196289062,
                49.29629135131836,
                279.70916748046875
            ],
            "min" : [
                -224.93228149414062,
                -14.000000953674316,
                -152.35414123535156
            ],
            "type" : "VEC3"
        },
        {
            "bufferView" : 1,
            "componentType" : 5126,
            "count" : 495,
            "type" : "VEC3"
        },
        {
            "bufferView" : 2,
            "componentType" : 5126,
            "count" : 495,
            "type" : "VEC2"
        },
        {
            "bufferView" : 3,
            "componentType" : 5123,
            "count" : 1029,
            "type" : "SCALAR"
        },
        {
            "bufferView" : 4,
            "componentType" : 5126,
            "count" : 651,
            "max" : [
                206.61399841308594,
                49.29629135131836,
                279.192138671875
            ],
            "min" : [
                -224.41525268554688,
                -267.69232177734375,
                -151.83712768554688
            ],
            "type" : "VEC3"
        },
        {
            "bufferView" : 5,
            "componentType" : 5126,
            "count" : 651,
            "type" : "VEC3"
        },
        {
            "bufferView" : 6,
            "componentType" : 5126,
            "count" : 651,
            "type" : "VEC2"
        },
        {
            "bufferView" : 7,
            "componentType" : 5123,
            "count" : 1146,
            "type" : "SCALAR"
        },
        {
            "bufferView" : 8,
            "componentType" : 5126,
            "count" : 58,
            "max" : [
                23.478641510009766,
                1,
                218.56784057617188
            ],
            "min" : [
                -48.52134704589844,
                0.9999951124191284,
                38.56886291503906
            ],
            "type" : "VEC3"
        },
        {
            "bufferView" : 9,
            "componentType" : 5126,
            "count" : 58,
            "type" : "VEC3"
        },
        {
            "bufferView" : 10,
            "componentType" : 5126,
            "count" : 58,
            "type" : "VEC2"
        },
        {
            "bufferView" : 11,
            "componentType" : 5123,
            "count" : 120,
            "type" : "SCALAR"
        },
        {
            "bufferView" : 12,
            "componentType" : 5126,
            "count" : 490,
            "max" : [
                48.416419982910156,
                28,
                160.46937561035156
            ],
            "min" : [
                28.54087257385254,
                0.9999980926513672,
                93.56886291503906
            ],
            "type" : "VEC3"
        },
        {
            "bufferView" : 13,
            "componentType" : 5126,
            "count" : 490,
            "type" : "VEC3"
        },
        {
            "bufferView" : 14,
            "componentType" : 5126,
            "count" : 490,
            "type" : "VEC2"
        },
        {
            "bufferView" : 15,
            "componentType" : 5123,
            "count" : 966,
            "type" : "SCALAR"
        }
    ],
    "bufferViews" : [
        {
            "buffer" : 0,
            "byteLength" : 5940,
            "byteOffset" : 0
        },
        {
            "buffer" : 0,
            "byteLength" : 5940,
            "byteOffset" : 5940
        },
        {
            "buffer" : 0,
            "byteLength" : 3960,
            "byteOffset" : 11880
        },
        {
            "buffer" : 0,
            "byteLength" : 2058,
            "byteOffset" : 15840
        },
        {
            "buffer" : 0,
            "byteLength" : 7812,
            "byteOffset" : 17900
        },
        {
            "buffer" : 0,
            "byteLength" : 7812,
            "byteOffset" : 25712
        },
        {
            "buffer" : 0,
            "byteLength" : 5208,
            "byteOffset" : 33524
        },
        {
            "buffer" : 0,
            "byteLength" : 2292,
            "byteOffset" : 38732
        },
        {
            "buffer" : 0,
            "byteLength" : 696,
            "byteOffset" : 41024
        },
        {
            "buffer" : 0,
            "byteLength" : 696,
            "byteOffset" : 41720
        },
        {
            "buffer" : 0,
            "byteLength" : 464,
            "byteOffset" : 42416
        },
        {
            "buffer" : 0,
            "byteLength" : 240,
            "byteOffset" : 42880
        },
        {
            "buffer" : 0,
            "byteLength" : 5880,
            "byteOffset" : 43120
        },
        {
            "buffer" : 0,
            "byteLength" : 5880,
            "byteOffset" : 49000
        },
        {
            "buffer" : 0,
            "byteLength" : 3920,
            "byteOffset" : 54880
        },
        {
            "buffer" : 0,
            "byteLength" : 1932,
            "byteOffset" : 58800
        }
    ],
    "buffers" : [
        {
            "byteLength" : 60732,
            "uri" : "data:application/octet-stream;base64,"
        }
    ]
}
