{
    "asset" : {
        "generator" : "Khronos glTF Blender I/O v1.2.75",
        "version" : "2.0"
    },
    "scene" : 0,
    "scenes" : [
        {
            "name" : "Scene",
            "nodes" : [
                1,
                3
            ]
        }
    ],
    "nodes" : [
        {
            "mesh" : 0,
            "name" : "Target-colonly"
        },
        {
            "children" : [
                0
            ],
            "mesh" : 1,
            "name" : "Target"
        },
        {
            "mesh" : 2,
            "name" : "Level Mesh-colonly"
        },
        {
            "children" : [
                2
            ],
            "mesh" : 3,
            "name" : "Level Mesh"
        }
    ],
    "materials" : [
        {
            "doubleSided" : true,
            "emissiveFactor" : [
                0,
                0,
                0
            ],
            "name" : "Material",
            "pbrMetallicRoughness" : {
                "baseColorFactor" : [
                    0.800000011920929,
                    0.800000011920929,
                    0.800000011920929,
                    1
                ],
                "metallicFactor" : 0,
                "roughnessFactor" : 0.4000000059604645
            }
        },
        {
            "doubleSided" : true,
            "emissiveFactor" : [
                0,
                0,
                0
            ],
            "name" : "Ground",
            "pbrMetallicRoughness" : {
                "baseColorFactor" : [
                    0.09462440758943558,
                    0.021558508276939392,
                    0.010242156684398651,
                    1
                ],
                "metallicFactor" : 0,
                "roughnessFactor" : 0.5
            }
        },
        {
            "doubleSided" : true,
            "emissiveFactor" : [
                0,
                0,
                0
            ],
            "name" : "Grass",
            "pbrMetallicRoughness" : {
                "baseColorFactor" : [
                    0.0019989032298326492,
                    0.8000000715255737,
                    0.05944417417049408,
                    1
                ],
                "metallicFactor" : 0,
                "roughnessFactor" : 0.5
            }
        },
        {
            "doubleSided" : true,
            "emissiveFactor" : [
                0,
                0,
                0
            ],
            "name" : "Stone",
            "pbrMetallicRoughness" : {
                "baseColorFactor" : [
                    0.800000011920929,
                    0.800000011920929,
                    0.800000011920929,
                    1
                ],
                "metallicFactor" : 0,
                "roughnessFactor" : 0.5
            }
        }
    ],
    "meshes" : [
        {
            "name" : "Cube.001",
            "primitives" : [
                {
                    "attributes" : {
                        "POSITION" : 0,
                        "NORMAL" : 1,
                        "TEXCOORD_0" : 2
                    },
                    "indices" : 3,
                    "material" : 0
                }
            ]
        },
        {
            "name" : "Cube",
            "primitives" : [
                {
                    "attributes" : {
                        "POSITION" : 4,
                        "NORMAL" : 5,
                        "TEXCOORD_0" : 6
                    },
                    "indices" : 3,
                    "material" : 0
                }
            ]
        },
        {
            "name" : "Circle.001",
            "primitives" : [
                {
                    "attributes" : {
                        "POSITION" : 7,
                        "NORMAL" : 8,
                        "TEXCOORD_0" : 9
                    },
                    "indices" : 10,
                    "material" : 1
                },
                {
                    "attributes" : {
                        "POSITION" : 11,
                        "NORMAL" : 12,
                        "TEXCOORD_0" : 13
                    },
                    "indices" : 14,
                    "material" : 2
                },
                {
                    "attributes" : {
                        "POSITION" : 15,
                        "NORMAL" : 16,
                        "TEXCOORD_0" : 17
                    },
                    "indices" : 18,
                    "material" : 3
                }
            ]
        },
        {
            "name" : "Circle",
            "primitives" : [
                {
                    "attributes" : {
                        "POSITION" : 19,
                        "NORMAL" : 20,
                        "TEXCOORD_0" : 21
                    },
                    "indices" : 10,
                    "material" : 1
                },
                {
                    "attributes" : {
                        "POSITION" : 22,
                        "NORMAL" : 23,
                        "TEXCOORD_0" : 24
                    },
                    "indices" : 14,
                    "material" : 2
                },
                {
                    "attributes" : {
                        "POSITION" : 25,
                        "NORMAL" : 26,
                        "TEXCOORD_0" : 27
                    },
                    "indices" : 18,
                    "material" : 3
                }
            ]
        }
    ],
    "accessors" : [
        {
            "bufferView" : 0,
            "componentType" : 5126,
            "count" : 24,
            "max" : [
                -45.828800201416016,
                7.249996185302734,
                -29.351696014404297
            ],
            "min" : [
                -47.828800201416016,
                0.9999959468841553,
                -31.351696014404297
            ],
            "type" : "VEC3"
        },
        {
            "bufferView" : 1,
            "componentType" : 5126,
            "count" : 24,
            "type" : "VEC3"
        },
        {
            "bufferView" : 2,
            "componentType" : 5126,
            "count" : 24,
            "type" : "VEC2"
        },
        {
            "bufferView" : 3,
            "componentType" : 5123,
            "count" : 36,
            "type" : "SCALAR"
        },
        {
            "bufferView" : 4,
            "componentType" : 5126,
            "count" : 24,
            "max" : [
                -45.828800201416016,
                7.249996185302734,
                -29.351696014404297
            ],
            "min" : [
                -47.828800201416016,
                0.9999959468841553,
                -31.351696014404297
            ],
            "type" : "VEC3"
        },
        {
            "bufferView" : 5,
            "componentType" : 5126,
            "count" : 24,
            "type" : "VEC3"
        },
        {
            "bufferView" : 6,
            "componentType" : 5126,
            "count" : 24,
            "type" : "VEC2"
        },
        {
            "bufferView" : 7,
            "componentType" : 5126,
            "count" : 500,
            "max" : [
                206.61399841308594,
                49.29629135131836,
                279.192138671875
            ],
            "min" : [
                -224.41525268554688,
                -267.69232177734375,
                -151.83712768554688
            ],
            "type" : "VEC3"
        },
        {
            "bufferView" : 8,
            "componentType" : 5126,
            "count" : 500,
            "type" : "VEC3"
        },
        {
            "bufferView" : 9,
            "componentType" : 5126,
            "count" : 500,
            "type" : "VEC2"
        },
        {
            "bufferView" : 10,
            "componentType" : 5123,
            "count" : 822,
            "type" : "SCALAR"
        },
        {
            "bufferView" : 11,
            "componentType" : 5126,
            "count" : 536,
            "max" : [
                207.13101196289062,
                49.29629135131836,
                279.70916748046875
            ],
            "min" : [
                -224.93228149414062,
                -14.000000953674316,
                -152.35414123535156
            ],
            "type" : "VEC3"
        },
        {
            "bufferView" : 12,
            "componentType" : 5126,
            "count" : 536,
            "type" : "VEC3"
        },
        {
            "bufferView" : 13,
            "componentType" : 5126,
            "count" : 536,
            "type" : "VEC2"
        },
        {
            "bufferView" : 14,
            "componentType" : 5123,
            "count" : 1221,
            "type" : "SCALAR"
        },
        {
            "bufferView" : 15,
            "componentType" : 5126,
            "count" : 426,
            "max" : [
                48.416419982910156,
                28,
                160.46937561035156
            ],
            "min" : [
                28.54087257385254,
                0.9999980926513672,
                93.56886291503906
            ],
            "type" : "VEC3"
        },
        {
            "bufferView" : 16,
            "componentType" : 5126,
            "count" : 426,
            "type" : "VEC3"
        },
        {
            "bufferView" : 17,
            "componentType" : 5126,
            "count" : 426,
            "type" : "VEC2"
        },
        {
            "bufferView" : 18,
            "componentType" : 5123,
            "count" : 1194,
            "type" : "SCALAR"
        },
        {
            "bufferView" : 19,
            "componentType" : 5126,
            "count" : 500,
            "max" : [
                206.61399841308594,
                49.29629135131836,
                279.192138671875
            ],
            "min" : [
                -224.41525268554688,
                -267.69232177734375,
                -151.83712768554688
            ],
            "type" : "VEC3"
        },
        {
            "bufferView" : 20,
            "componentType" : 5126,
            "count" : 500,
            "type" : "VEC3"
        },
        {
            "bufferView" : 21,
            "componentType" : 5126,
            "count" : 500,
            "type" : "VEC2"
        },
        {
            "bufferView" : 22,
            "componentType" : 5126,
            "count" : 536,
            "max" : [
                207.13101196289062,
                49.29629135131836,
                279.70916748046875
            ],
            "min" : [
                -224.93228149414062,
                -14.000000953674316,
                -152.35414123535156
            ],
            "type" : "VEC3"
        },
        {
            "bufferView" : 23,
            "componentType" : 5126,
            "count" : 536,
            "type" : "VEC3"
        },
        {
            "bufferView" : 24,
            "componentType" : 5126,
            "count" : 536,
            "type" : "VEC2"
        },
        {
            "bufferView" : 25,
            "componentType" : 5126,
            "count" : 426,
            "max" : [
                48.416419982910156,
                28,
                160.46937561035156
            ],
            "min" : [
                28.54087257385254,
                0.9999980926513672,
                93.56886291503906
            ],
            "type" : "VEC3"
        },
        {
            "bufferView" : 26,
            "componentType" : 5126,
            "count" : 426,
            "type" : "VEC3"
        },
        {
            "bufferView" : 27,
            "componentType" : 5126,
            "count" : 426,
            "type" : "VEC2"
        }
    ],
    "bufferViews" : [
        {
            "buffer" : 0,
            "byteLength" : 288,
            "byteOffset" : 0
        },
        {
            "buffer" : 0,
            "byteLength" : 288,
            "byteOffset" : 288
        },
        {
            "buffer" : 0,
            "byteLength" : 192,
            "byteOffset" : 576
        },
        {
            "buffer" : 0,
            "byteLength" : 72,
            "byteOffset" : 768
        },
        {
            "buffer" : 0,
            "byteLength" : 288,
            "byteOffset" : 840
        },
        {
            "buffer" : 0,
            "byteLength" : 288,
            "byteOffset" : 1128
        },
        {
            "buffer" : 0,
            "byteLength" : 192,
            "byteOffset" : 1416
        },
        {
            "buffer" : 0,
            "byteLength" : 6000,
            "byteOffset" : 1608
        },
        {
            "buffer" : 0,
            "byteLength" : 6000,
            "byteOffset" : 7608
        },
        {
            "buffer" : 0,
            "byteLength" : 4000,
            "byteOffset" : 13608
        },
        {
            "buffer" : 0,
            "byteLength" : 1644,
            "byteOffset" : 17608
        },
        {
            "buffer" : 0,
            "byteLength" : 6432,
            "byteOffset" : 19252
        },
        {
            "buffer" : 0,
            "byteLength" : 6432,
            "byteOffset" : 25684
        },
        {
            "buffer" : 0,
            "byteLength" : 4288,
            "byteOffset" : 32116
        },
        {
            "buffer" : 0,
            "byteLength" : 2442,
            "byteOffset" : 36404
        },
        {
            "buffer" : 0,
            "byteLength" : 5112,
            "byteOffset" : 38848
        },
        {
            "buffer" : 0,
            "byteLength" : 5112,
            "byteOffset" : 43960
        },
        {
            "buffer" : 0,
            "byteLength" : 3408,
            "byteOffset" : 49072
        },
        {
            "buffer" : 0,
            "byteLength" : 2388,
            "byteOffset" : 52480
        },
        {
            "buffer" : 0,
            "byteLength" : 6000,
            "byteOffset" : 54868
        },
        {
            "buffer" : 0,
            "byteLength" : 6000,
            "byteOffset" : 60868
        },
        {
            "buffer" : 0,
            "byteLength" : 4000,
            "byteOffset" : 66868
        },
        {
            "buffer" : 0,
            "byteLength" : 6432,
            "byteOffset" : 70868
        },
        {
            "buffer" : 0,
            "byteLength" : 6432,
            "byteOffset" : 77300
        },
        {
            "buffer" : 0,
            "byteLength" : 4288,
            "byteOffset" : 83732
        },
        {
            "buffer" : 0,
            "byteLength" : 5112,
            "byteOffset" : 88020
        },
        {
            "buffer" : 0,
            "byteLength" : 5112,
            "byteOffset" : 93132
        },
        {
            "buffer" : 0,
            "byteLength" : 3408,
            "byteOffset" : 98244
        }
    ],
    "buffers" : [
        {
            "byteLength" : 101652,
            "uri" : "data:application/octet-stream;base64,"
        }
    ]
}
