{
    "asset" : {
        "generator" : "Khronos glTF Blender I/O v1.2.75",
        "version" : "2.0"
    },
    "scene" : 0,
    "scenes" : [
        {
            "name" : "Scene",
            "nodes" : [
                0,
                1
            ]
        }
    ],
    "nodes" : [
        {
            "mesh" : 0,
            "name" : "Target"
        },
        {
            "mesh" : 1,
            "name" : "Level Mesh"
        }
    ],
    "materials" : [
        {
            "doubleSided" : true,
            "emissiveFactor" : [
                0,
                0,
                0
            ],
            "name" : "Material",
            "pbrMetallicRoughness" : {
                "baseColorFactor" : [
                    0.800000011920929,
                    0.800000011920929,
                    0.800000011920929,
                    1
                ],
                "metallicFactor" : 0,
                "roughnessFactor" : 0.4000000059604645
            }
        },
        {
            "doubleSided" : true,
            "emissiveFactor" : [
                0,
                0,
                0
            ],
            "name" : "Ground",
            "pbrMetallicRoughness" : {
                "baseColorFactor" : [
                    0.09462440758943558,
                    0.021558508276939392,
                    0.010242156684398651,
                    1
                ],
                "metallicFactor" : 0,
                "roughnessFactor" : 0.5
            }
        },
        {
            "doubleSided" : true,
            "emissiveFactor" : [
                0,
                0,
                0
            ],
            "name" : "Grass",
            "pbrMetallicRoughness" : {
                "baseColorFactor" : [
                    0.0019989032298326492,
                    0.8000000715255737,
                    0.05944417417049408,
                    1
                ],
                "metallicFactor" : 0,
                "roughnessFactor" : 0.5
            }
        },
        {
            "doubleSided" : true,
            "emissiveFactor" : [
                0,
                0,
                0
            ],
            "name" : "Stone",
            "pbrMetallicRoughness" : {
                "baseColorFactor" : [
                    0.800000011920929,
                    0.800000011920929,
                    0.800000011920929,
                    1
                ],
                "metallicFactor" : 0,
                "roughnessFactor" : 0.5
            }
        },
        {
            "doubleSided" : true,
            "emissiveFactor" : [
                0,
                0,
                0
            ],
            "name" : "Checkered",
            "pbrMetallicRoughness" : {
                "baseColorTexture" : {
                    "index" : 0,
                    "texCoord" : 0
                },
                "metallicFactor" : 0,
                "roughnessFactor" : 0.5
            }
        }
    ],
    "meshes" : [
        {
            "name" : "Cube",
            "primitives" : [
                {
                    "attributes" : {
                        "POSITION" : 0,
                        "NORMAL" : 1,
                        "TEXCOORD_0" : 2
                    },
                    "indices" : 3,
                    "material" : 0
                }
            ]
        },
        {
            "name" : "Circle",
            "primitives" : [
                {
                    "attributes" : {
                        "POSITION" : 4,
                        "NORMAL" : 5,
                        "TEXCOORD_0" : 6
                    },
                    "indices" : 7,
                    "material" : 1
                },
                {
                    "attributes" : {
                        "POSITION" : 8,
                        "NORMAL" : 9,
                        "TEXCOORD_0" : 10
                    },
                    "indices" : 11,
                    "material" : 2
                },
                {
                    "attributes" : {
                        "POSITION" : 12,
                        "NORMAL" : 13,
                        "TEXCOORD_0" : 14
                    },
                    "indices" : 15,
                    "material" : 3
                },
                {
                    "attributes" : {
                        "POSITION" : 16,
                        "NORMAL" : 17,
                        "TEXCOORD_0" : 18
                    },
                    "indices" : 19,
                    "material" : 4
                }
            ]
        }
    ],
    "textures" : [
        {
            "source" : 0
        }
    ],
    "images" : [
        {
            "bufferView" : 20,
            "mimeType" : "image/png",
            "name" : "Tiled_Floor"
        }
    ],
    "accessors" : [
        {
            "bufferView" : 0,
            "componentType" : 5126,
            "count" : 24,
            "max" : [
                -45.828800201416016,
                7.249996185302734,
                -29.351696014404297
            ],
            "min" : [
                -47.828800201416016,
                0.9999959468841553,
                -31.351696014404297
            ],
            "type" : "VEC3"
        },
        {
            "bufferView" : 1,
            "componentType" : 5126,
            "count" : 24,
            "type" : "VEC3"
        },
        {
            "bufferView" : 2,
            "componentType" : 5126,
            "count" : 24,
            "type" : "VEC2"
        },
        {
            "bufferView" : 3,
            "componentType" : 5123,
            "count" : 36,
            "type" : "SCALAR"
        },
        {
            "bufferView" : 4,
            "componentType" : 5126,
            "count" : 500,
            "max" : [
                206.61399841308594,
                49.29629135131836,
                279.192138671875
            ],
            "min" : [
                -224.41525268554688,
                -267.69232177734375,
                -151.83712768554688
            ],
            "type" : "VEC3"
        },
        {
            "bufferView" : 5,
            "componentType" : 5126,
            "count" : 500,
            "type" : "VEC3"
        },
        {
            "bufferView" : 6,
            "componentType" : 5126,
            "count" : 500,
            "type" : "VEC2"
        },
        {
            "bufferView" : 7,
            "componentType" : 5123,
            "count" : 822,
            "type" : "SCALAR"
        },
        {
            "bufferView" : 8,
            "componentType" : 5126,
            "count" : 524,
            "max" : [
                207.13101196289062,
                49.29629135131836,
                279.70916748046875
            ],
            "min" : [
                -224.93228149414062,
                -14.000000953674316,
                -152.35414123535156
            ],
            "type" : "VEC3"
        },
        {
            "bufferView" : 9,
            "componentType" : 5126,
            "count" : 524,
            "type" : "VEC3"
        },
        {
            "bufferView" : 10,
            "componentType" : 5126,
            "count" : 524,
            "type" : "VEC2"
        },
        {
            "bufferView" : 11,
            "componentType" : 5123,
            "count" : 1167,
            "type" : "SCALAR"
        },
        {
            "bufferView" : 12,
            "componentType" : 5126,
            "count" : 426,
            "max" : [
                48.416419982910156,
                28,
                160.46937561035156
            ],
            "min" : [
                28.54087257385254,
                0.9999980926513672,
                93.56886291503906
            ],
            "type" : "VEC3"
        },
        {
            "bufferView" : 13,
            "componentType" : 5126,
            "count" : 426,
            "type" : "VEC3"
        },
        {
            "bufferView" : 14,
            "componentType" : 5126,
            "count" : 426,
            "type" : "VEC2"
        },
        {
            "bufferView" : 15,
            "componentType" : 5123,
            "count" : 1194,
            "type" : "SCALAR"
        },
        {
            "bufferView" : 16,
            "componentType" : 5126,
            "count" : 52,
            "max" : [
                23.478641510009766,
                1,
                218.56784057617188
            ],
            "min" : [
                -48.52134704589844,
                0.9999951124191284,
                38.56886291503906
            ],
            "type" : "VEC3"
        },
        {
            "bufferView" : 17,
            "componentType" : 5126,
            "count" : 52,
            "type" : "VEC3"
        },
        {
            "bufferView" : 18,
            "componentType" : 5126,
            "count" : 52,
            "type" : "VEC2"
        },
        {
            "bufferView" : 19,
            "componentType" : 5123,
            "count" : 120,
            "type" : "SCALAR"
        }
    ],
    "bufferViews" : [
        {
            "buffer" : 0,
            "byteLength" : 288,
            "byteOffset" : 0
        },
        {
            "buffer" : 0,
            "byteLength" : 288,
            "byteOffset" : 288
        },
        {
            "buffer" : 0,
            "byteLength" : 192,
            "byteOffset" : 576
        },
        {
            "buffer" : 0,
            "byteLength" : 72,
            "byteOffset" : 768
        },
        {
            "buffer" : 0,
            "byteLength" : 6000,
            "byteOffset" : 840
        },
        {
            "buffer" : 0,
            "byteLength" : 6000,
            "byteOffset" : 6840
        },
        {
            "buffer" : 0,
            "byteLength" : 4000,
            "byteOffset" : 12840
        },
        {
            "buffer" : 0,
            "byteLength" : 1644,
            "byteOffset" : 16840
        },
        {
            "buffer" : 0,
            "byteLength" : 6288,
            "byteOffset" : 18484
        },
        {
            "buffer" : 0,
            "byteLength" : 6288,
            "byteOffset" : 24772
        },
        {
            "buffer" : 0,
            "byteLength" : 4192,
            "byteOffset" : 31060
        },
        {
            "buffer" : 0,
            "byteLength" : 2334,
            "byteOffset" : 35252
        },
        {
            "buffer" : 0,
            "byteLength" : 5112,
            "byteOffset" : 37588
        },
        {
            "buffer" : 0,
            "byteLength" : 5112,
            "byteOffset" : 42700
        },
        {
            "buffer" : 0,
            "byteLength" : 3408,
            "byteOffset" : 47812
        },
        {
            "buffer" : 0,
            "byteLength" : 2388,
            "byteOffset" : 51220
        },
        {
            "buffer" : 0,
            "byteLength" : 624,
            "byteOffset" : 53608
        },
        {
            "buffer" : 0,
            "byteLength" : 624,
            "byteOffset" : 54232
        },
        {
            "buffer" : 0,
            "byteLength" : 416,
            "byteOffset" : 54856
        },
        {
            "buffer" : 0,
            "byteLength" : 240,
            "byteOffset" : 55272
        },
        {
            "buffer" : 0,
            "byteLength" : 6699,
            "byteOffset" : 55512
        }
    ],
    "buffers" : [
        {
            "byteLength" : 62212,
            "uri" : "data:application/octet-stream;base64,"
        }
    ]
}
